<?xml version="1.0" standalone="no"?>
<!DOCTYPE svg PUBLIC "-//W3C//DTD SVG 20010904//EN"
 "http://www.w3.org/TR/2001/REC-SVG-20010904/DTD/svg10.dtd">
<svg version="1.0" xmlns="http://www.w3.org/2000/svg"
 width="1237.000000pt" height="1237.000000pt" viewBox="0 0 1237.000000 1237.000000"
 preserveAspectRatio="xMidYMid meet">
<metadata>
Created by potrace 1.14, written by Peter Selinger 2001-2017
</metadata>
<g transform="translate(0.000000,1237.000000) scale(0.100000,-0.100000)"
fill="#000000" stroke="none">
<path d="M80 12350 c0 -20 7 -20 6105 -20 6098 0 6105 0 6105 20 0 20 -7 20
-6105 20 -6098 0 -6105 0 -6105 -20z"/>
<path d="M6365 11800 c-181 -14 -360 -30 -385 -36 -14 -4 -54 -10 -90 -15 -36
-4 -114 -18 -175 -30 -60 -11 -128 -23 -150 -26 -22 -2 -49 -8 -60 -13 -11 -5
-33 -11 -50 -14 -28 -4 -50 -10 -157 -37 -24 -6 -58 -13 -76 -16 -18 -3 -35
-9 -38 -14 -3 -5 -13 -9 -22 -9 -20 0 -150 -38 -174 -51 -10 -5 -24 -9 -32 -9
-15 0 -236 -81 -303 -111 -24 -10 -45 -19 -48 -19 -3 0 -27 -9 -53 -21 -26
-12 -56 -25 -67 -29 -143 -60 -513 -252 -602 -312 -23 -15 -44 -28 -48 -28
-10 0 -303 -198 -384 -259 -121 -93 -308 -245 -395 -323 -155 -138 -478 -467
-591 -603 -32 -38 -62 -72 -65 -75 -3 -3 -44 -52 -91 -110 -171 -209 -362
-487 -502 -730 -114 -199 -229 -435 -316 -655 -8 -20 -22 -53 -40 -97 -5 -13
-15 -41 -22 -63 -7 -22 -17 -44 -21 -49 -4 -6 -8 -19 -8 -31 0 -12 -4 -25 -8
-30 -5 -6 -18 -41 -30 -80 -12 -38 -33 -106 -47 -149 -14 -44 -34 -118 -45
-165 -11 -47 -27 -111 -34 -141 -29 -113 -76 -379 -95 -535 -26 -211 -31 -272
-38 -435 -20 -447 -4 -749 67 -1285 34 -260 163 -785 240 -980 4 -11 18 -47
30 -80 12 -33 26 -69 30 -80 5 -11 14 -33 20 -50 7 -16 36 -86 65 -155 48
-114 51 -126 36 -140 -9 -9 -65 -55 -126 -104 -60 -48 -119 -96 -130 -105 -11
-9 -92 -75 -179 -146 -88 -72 -184 -150 -214 -175 -29 -25 -71 -58 -92 -75
-45 -36 -513 -427 -520 -435 -3 -3 -32 -28 -65 -55 -33 -28 -73 -62 -90 -78
-16 -15 -45 -37 -62 -50 l-33 -22 0 -93 c0 -72 3 -91 13 -86 24 15 1210 902
1502 1123 l120 91 17 -22 c10 -13 18 -26 18 -30 0 -3 22 -45 50 -93 27 -48 50
-88 50 -91 0 -4 53 -90 116 -185 24 -37 44 -72 44 -77 0 -6 -45 -49 -101 -94
-207 -171 -425 -351 -449 -372 -14 -11 -50 -41 -80 -66 -30 -25 -57 -47 -60
-50 -3 -3 -32 -27 -65 -55 -33 -27 -62 -52 -65 -55 -3 -3 -34 -30 -70 -60 -36
-30 -67 -57 -70 -60 -3 -3 -34 -30 -70 -60 -206 -173 -547 -496 -536 -507 4
-4 10 -3 14 2 4 6 15 15 24 20 18 11 193 135 388 274 69 49 165 118 214 153
48 35 116 83 151 108 35 25 118 85 186 133 68 49 165 118 214 153 50 36 122
87 160 114 39 27 130 92 203 145 73 52 136 95 140 95 4 0 13 -10 21 -22 8 -13
31 -43 51 -68 107 -131 160 -202 155 -209 -2 -5 -30 -28 -62 -52 -32 -24 -101
-78 -153 -119 -148 -118 -331 -262 -370 -292 -29 -22 -507 -405 -620 -497 -19
-16 -114 -92 -210 -170 -96 -78 -193 -157 -215 -175 -22 -18 -91 -75 -154
-127 -63 -52 -157 -130 -210 -174 -53 -44 -140 -116 -194 -160 l-97 -80 0 -88
c0 -96 -3 -94 60 -47 19 15 78 58 130 97 572 419 1922 1436 2160 1627 41 33
81 64 87 69 9 7 64 -42 195 -175 179 -180 367 -353 518 -474 169 -136 447
-337 555 -402 28 -16 87 -52 133 -81 46 -28 86 -51 89 -51 3 0 17 -9 32 -19
28 -20 443 -231 454 -231 4 0 36 -14 72 -30 36 -17 68 -30 70 -30 3 0 24 -9
48 -19 101 -46 542 -191 580 -191 9 0 25 -4 35 -9 9 -5 51 -17 92 -26 41 -10
93 -22 115 -27 90 -21 355 -66 455 -78 41 -5 89 -11 105 -14 91 -17 470 -36
722 -36 216 0 341 5 498 21 250 25 351 36 385 43 14 3 70 13 125 22 55 9 118
20 140 25 22 4 65 12 95 18 30 6 91 20 135 31 44 12 96 25 115 30 19 5 69 18
110 30 41 12 89 25 105 29 93 25 444 152 540 196 28 13 68 31 90 40 83 36 274
131 374 187 58 32 106 58 108 58 2 0 31 18 63 40 32 22 61 40 64 40 26 0 432
288 585 414 196 161 527 470 648 606 47 52 100 111 117 130 48 53 223 272 308
385 128 171 294 428 397 615 69 124 271 540 271 557 0 3 7 21 16 41 9 21 20
47 25 60 5 12 13 32 18 45 32 78 95 261 111 322 5 17 20 71 34 120 l26 90 0
1482 c0 1465 0 1484 -21 1560 -11 43 -24 89 -28 103 -5 14 -23 72 -41 130 -18
58 -36 114 -40 125 -5 11 -18 47 -30 80 -12 33 -26 69 -30 80 -4 11 -16 40
-25 65 -19 50 -30 78 -69 163 -14 32 -26 60 -26 63 0 7 -152 310 -180 359 -13
22 -34 60 -48 85 -59 107 -204 337 -261 415 -137 186 -180 243 -192 255 -8 8
-41 48 -74 89 -238 296 -661 707 -970 945 -123 94 -275 205 -332 241 -35 22
-63 43 -63 48 0 4 -5 7 -11 7 -5 0 -36 18 -67 39 -55 37 -160 100 -282 170
-296 170 -765 364 -1110 461 -25 7 -56 16 -70 20 -14 5 -65 18 -115 30 -49 11
-106 25 -125 30 -37 9 -77 17 -300 58 -105 20 -276 40 -525 62 -117 11 -745
10 -890 0z m933 -310 c37 -5 126 -17 197 -26 72 -10 157 -21 190 -25 33 -4 83
-12 110 -18 28 -5 77 -15 110 -21 115 -22 170 -35 300 -70 44 -12 94 -25 110
-29 80 -22 352 -116 450 -156 144 -59 209 -87 330 -146 124 -59 187 -93 340
-179 22 -12 59 -35 82 -51 23 -16 45 -29 48 -29 10 0 309 -204 410 -280 191
-144 418 -342 610 -532 110 -109 217 -219 238 -243 l38 -45 -23 -9 c-13 -5
-105 -14 -203 -20 -163 -10 -263 -23 -485 -65 -192 -35 -578 -143 -760 -211
-68 -25 -81 -31 -130 -53 -25 -12 -72 -31 -105 -43 -96 -35 -226 -94 -442
-200 l-203 -100 -62 37 c-35 20 -79 46 -98 57 -151 88 -442 210 -620 258 -244
67 -312 81 -535 109 -44 6 -199 13 -345 16 -259 6 -379 -1 -645 -36 -135 -18
-445 -100 -585 -154 -152 -60 -339 -148 -450 -213 -105 -61 -150 -89 -224
-140 -297 -206 -658 -557 -854 -833 -66 -92 -132 -189 -132 -194 0 -2 -19 -35
-42 -72 -51 -86 -139 -254 -162 -314 -10 -25 -24 -61 -33 -80 -8 -19 -19 -44
-23 -55 -40 -101 -50 -130 -50 -141 0 -8 -4 -22 -9 -32 -8 -16 -40 -126 -61
-212 -42 -167 -68 -350 -80 -557 -7 -109 -14 -203 -15 -209 -2 -6 -20 -19 -42
-29 -21 -9 -87 -42 -146 -71 l-108 -54 -247 2 -247 3 -3 32 c-3 28 3 35 65 79
37 26 93 66 124 88 31 23 100 73 154 111 147 105 132 70 134 315 0 117 -2 216
-5 221 -5 8 -38 -11 -84 -48 -80 -64 -238 -188 -290 -228 -36 -27 -74 -57 -84
-67 -32 -29 -49 -21 -80 38 -28 54 -106 132 -157 158 -13 6 -43 17 -66 24 -24
7 -60 17 -80 23 -43 12 -227 7 -288 -8 -119 -29 -221 -110 -272 -216 -66 -137
-75 -208 -71 -587 l3 -305 440 -5 440 -5 -86 -57 c-123 -80 -159 -114 -159
-148 0 -46 38 -63 124 -56 39 3 96 9 126 15 301 51 310 52 575 58 287 6 391
-5 405 -41 4 -12 17 -61 29 -111 22 -92 57 -214 71 -250 4 -11 18 -47 30 -80
12 -33 31 -79 41 -102 11 -24 19 -45 19 -48 0 -3 25 -57 56 -120 l57 -114 -56
-83 c-31 -46 -75 -110 -98 -143 -34 -48 -43 -69 -43 -105 -1 -42 5 -52 81
-145 178 -219 246 -301 266 -325 12 -14 44 -51 70 -83 l49 -57 58 0 c47 0 85
10 189 51 l131 51 78 -73 c148 -139 379 -308 570 -418 57 -33 72 -47 72 -65 0
-94 -96 -494 -150 -621 -4 -11 -18 -47 -30 -80 -12 -33 -31 -79 -41 -102 -11
-24 -19 -45 -19 -48 0 -3 -9 -24 -19 -48 -67 -145 -89 -202 -79 -208 11 -7 53
4 98 24 80 38 410 316 588 497 89 90 258 273 290 314 22 28 23 29 74 17 84
-19 139 -30 203 -41 33 -6 85 -15 115 -20 238 -42 736 -47 980 -9 227 35 353
61 475 99 39 12 84 25 100 30 38 10 94 29 120 40 11 5 45 19 75 31 489 193
951 538 1331 995 80 97 289 392 289 409 0 4 9 19 19 34 36 50 166 318 200 411
7 19 17 44 21 55 24 60 44 114 51 143 5 17 13 47 18 65 53 185 55 193 108 522
25 158 25 723 0 870 -10 55 -24 141 -33 190 -16 95 -18 106 -60 255 -45 163
-47 152 43 250 169 185 303 349 524 645 20 28 79 115 131 195 87 134 109 170
159 258 11 17 29 49 41 70 12 20 67 127 123 237 93 184 151 335 195 503 6 23
15 42 20 42 14 0 193 -272 280 -424 9 -17 29 -51 44 -76 49 -84 172 -334 220
-450 27 -63 57 -134 67 -157 11 -24 19 -49 19 -57 0 -8 5 -18 10 -21 6 -3 10
-15 10 -26 0 -10 4 -27 10 -37 5 -9 19 -46 30 -82 12 -36 25 -74 30 -85 41
-99 134 -492 170 -720 6 -38 15 -97 20 -130 10 -59 19 -137 39 -325 24 -223
30 -489 18 -780 -9 -213 -22 -342 -67 -660 -18 -128 -83 -419 -125 -560 -7
-25 -21 -72 -30 -105 -26 -92 -55 -178 -65 -197 -6 -10 -10 -24 -10 -31 0 -7
-9 -32 -20 -55 -11 -22 -20 -46 -20 -52 0 -5 -10 -32 -21 -58 -12 -26 -27 -60
-34 -77 -111 -255 -224 -484 -275 -555 -11 -16 -20 -30 -20 -33 0 -13 -206
-337 -242 -382 -5 -5 -44 -59 -89 -119 -44 -60 -115 -151 -157 -203 -42 -52
-86 -107 -97 -122 -80 -110 -548 -567 -724 -707 -13 -10 -40 -33 -60 -49 -177
-150 -516 -374 -786 -521 -116 -63 -434 -214 -450 -214 -3 0 -24 -9 -48 -19
-54 -25 -178 -69 -337 -121 -202 -66 -392 -116 -570 -149 -25 -5 -72 -14 -105
-21 -374 -72 -1083 -118 -1365 -89 -47 5 -159 16 -250 25 -91 9 -192 20 -225
24 -129 19 -192 29 -240 40 -27 6 -72 16 -100 21 -99 19 -201 45 -320 79 -16
5 -46 13 -65 19 -146 40 -440 144 -556 196 -91 41 -424 207 -489 243 -361 201
-765 500 -1100 815 -136 128 -307 305 -311 323 -2 5 17 25 41 44 24 19 63 60
87 90 23 30 48 61 55 70 75 91 158 200 169 221 16 31 10 39 -27 39 -46 0 -287
-132 -416 -227 -40 -29 -75 -53 -77 -53 -5 0 -93 109 -168 209 l-56 75 33 25
c38 30 99 74 210 150 44 30 85 59 90 64 20 16 374 262 530 367 165 112 229
173 299 285 89 143 64 168 -130 126 -123 -27 -182 -56 -305 -153 -58 -46 -131
-103 -163 -128 -284 -221 -355 -277 -516 -406 -111 -90 -170 -134 -180 -134
-20 0 -280 449 -280 484 0 8 105 93 233 190 236 179 418 318 472 360 510 400
561 444 662 576 27 36 72 93 99 128 135 173 141 226 16 171 -136 -60 -317
-164 -409 -236 -34 -26 -94 -73 -135 -104 -109 -84 -745 -590 -771 -615 -29
-26 -283 -224 -288 -224 -3 0 -20 37 -38 82 -18 46 -40 98 -48 116 -20 46 -71
186 -90 247 -8 28 -19 59 -23 70 -11 31 -28 86 -40 135 -6 25 -15 54 -19 65
-16 36 -88 367 -111 510 -6 39 -16 93 -21 120 -29 152 -61 620 -63 905 -1 152
11 406 24 515 32 255 53 407 74 520 18 98 61 290 77 343 5 17 13 47 18 65 35
123 102 322 122 359 5 10 9 27 9 37 0 11 4 22 9 25 5 3 12 18 16 33 3 16 13
43 21 61 8 17 20 47 28 65 64 150 86 197 139 302 137 270 324 571 502 808 33
44 69 92 80 106 67 90 337 392 485 541 89 90 214 205 345 319 233 203 567 434
840 583 126 68 455 228 470 228 3 0 24 8 48 19 141 63 436 166 547 191 19 5
71 18 115 29 163 43 421 96 540 111 33 4 116 15 185 23 69 9 166 20 215 25
125 13 901 14 983 2z m3621 -2010 c74 -6 140 -15 146 -20 26 -22 -32 -277
-105 -464 -58 -146 -302 -629 -372 -734 -15 -24 -28 -45 -28 -47 0 -24 -323
-503 -437 -650 -85 -107 -173 -214 -238 -285 -27 -31 -88 -98 -135 -149 -47
-52 -155 -158 -240 -235 -151 -137 -172 -157 -275 -241 -26 -22 -67 -56 -89
-75 -23 -19 -97 -78 -165 -130 -68 -52 -190 -147 -272 -210 -198 -153 -265
-204 -362 -272 -131 -92 -455 -308 -462 -308 -2 0 -40 -23 -85 -51 -45 -28
-96 -59 -114 -68 -17 -10 -71 -42 -121 -71 -49 -29 -124 -70 -165 -92 -41 -23
-93 -51 -116 -63 -22 -13 -49 -27 -60 -32 -10 -6 -32 -17 -49 -26 -16 -9 -75
-39 -131 -67 -55 -27 -108 -58 -116 -68 -8 -9 -20 -37 -27 -62 -26 -94 -174
-482 -234 -610 -98 -215 -256 -523 -317 -620 -5 -8 -32 -53 -60 -100 -168
-280 -388 -581 -603 -825 -122 -137 -174 -192 -302 -315 -149 -143 -208 -195
-212 -183 -2 5 28 102 67 216 158 469 187 698 125 992 -25 121 -70 222 -162
365 -66 102 -91 130 -114 130 -17 0 -207 -74 -273 -106 -16 -8 -33 -14 -37
-14 -5 0 -50 -17 -101 -39 -51 -21 -142 -58 -203 -81 -60 -24 -123 -49 -140
-55 -16 -7 -56 -21 -88 -31 l-57 -18 -53 59 c-133 148 -327 419 -327 455 0 25
130 212 374 539 87 118 166 228 175 243 l16 29 -125 122 c-194 190 -352 283
-570 336 -167 40 -396 55 -617 42 -254 -16 -322 -18 -333 -11 -14 9 189 135
413 256 97 53 318 161 420 205 39 17 90 39 112 49 49 22 138 57 270 105 538
199 1172 330 1748 361 l118 6 137 156 c197 224 519 546 757 757 49 44 95 85
101 90 42 37 86 74 214 181 80 66 168 138 195 159 28 22 52 43 55 46 8 10 406
308 520 390 183 131 321 227 370 255 19 12 71 44 116 71 45 28 112 67 149 88
77 42 402 205 410 205 2 0 28 11 57 25 101 46 354 143 528 200 96 32 184 61
195 65 36 14 237 67 405 108 267 66 521 113 665 125 81 7 103 7 234 -3z
m-8627 -3082 c15 -5 38 -27 52 -49 25 -37 26 -45 26 -184 l0 -145 -162 2 -163
3 -3 137 c-2 131 -1 139 22 176 13 21 35 46 48 54 41 27 119 29 180 6z"/>
<path d="M6360 11214 c-47 -7 -136 -23 -199 -36 l-113 -23 -13 -35 c-7 -19
-23 -69 -35 -110 -13 -41 -31 -100 -40 -130 -10 -30 -29 -93 -44 -140 -15 -47
-30 -91 -35 -98 -6 -10 -44 35 -127 148 -65 90 -124 168 -129 174 -6 6 -26 32
-43 59 -35 50 -47 54 -111 38 -20 -5 -67 -15 -106 -21 -97 -16 -186 -31 -212
-36 -13 -3 -23 -9 -23 -14 0 -6 64 -88 143 -183 79 -95 161 -194 182 -222 22
-27 75 -91 118 -142 74 -89 88 -115 67 -128 -5 -3 -10 -16 -10 -29 0 -12 -4
-26 -8 -31 -4 -6 -14 -28 -21 -50 -7 -22 -16 -49 -21 -60 -4 -11 -38 -105 -75
-210 -36 -104 -75 -212 -85 -240 -35 -94 -44 -125 -38 -131 6 -5 175 18 255
36 23 6 52 10 65 10 13 0 39 5 59 10 32 9 38 16 49 58 7 26 20 72 30 102 10
30 23 73 29 95 6 22 25 83 41 135 17 52 30 103 30 113 0 48 46 2 195 -195 169
-226 156 -215 250 -197 47 9 91 16 230 38 60 9 95 19 95 27 0 3 -48 64 -107
136 -60 71 -119 145 -133 162 -14 18 -68 83 -120 146 -53 63 -111 134 -129
156 l-33 42 16 43 c8 24 33 96 56 159 23 63 50 140 60 170 10 30 46 133 79
228 62 177 67 193 54 191 -5 -1 -46 -7 -93 -15z"/>
<path d="M3664 10197 c-349 -262 -400 -304 -392 -320 8 -16 159 -218 402 -537
145 -191 329 -434 399 -527 l69 -92 142 108 c77 59 245 185 371 281 127 96
245 185 262 199 32 25 42 46 25 53 -4 2 -47 56 -97 121 -49 65 -93 121 -97
123 -5 3 -32 -12 -61 -34 -29 -22 -95 -72 -147 -111 -52 -40 -102 -78 -110
-84 -105 -83 -183 -137 -194 -137 -20 0 -129 147 -123 164 3 7 94 80 203 162
234 176 244 184 244 200 0 8 -146 210 -176 243 -6 6 -92 -55 -287 -203 -98
-75 -184 -136 -191 -136 -7 0 -26 19 -43 43 -17 23 -45 61 -62 84 l-32 42 123
94 c68 52 179 137 248 189 69 52 126 101 128 109 2 14 -184 269 -196 269 -4 0
-188 -137 -408 -303z"/>
<path d="M2462 8918 c-5 -7 -46 -85 -89 -173 -44 -88 -142 -282 -217 -432 -76
-150 -135 -277 -131 -282 3 -6 63 -39 133 -74 144 -73 1049 -530 1078 -545 48
-25 73 -34 82 -31 11 5 452 874 452 892 0 12 -275 157 -297 157 -6 0 -73 -124
-149 -276 -76 -151 -142 -278 -147 -281 -14 -8 -187 79 -187 94 0 7 56 125
125 261 69 137 125 253 125 258 0 9 -258 145 -272 144 -5 0 -64 -112 -132
-248 -68 -136 -130 -253 -138 -260 -11 -9 -33 -1 -106 36 -51 26 -92 51 -92
56 0 5 61 130 135 278 74 147 135 274 135 282 0 14 -258 156 -284 156 -8 0
-18 -6 -24 -12z"/>
<path d="M10480 5575 c-7 -17 -23 -59 -36 -95 -14 -36 -29 -74 -33 -85 -32
-71 -70 -189 -64 -198 7 -12 19 -26 134 -152 160 -177 214 -239 217 -250 2 -8
-19 -14 -65 -19 -37 -3 -111 -10 -163 -16 -52 -5 -142 -14 -199 -19 -57 -5
-107 -13 -111 -18 -16 -18 -150 -375 -144 -385 7 -11 22 -10 224 22 129 20
197 30 340 50 98 14 200 30 224 35 26 6 30 3 92 -70 99 -117 299 -359 319
-386 55 -72 148 -178 155 -174 4 2 15 26 24 52 10 26 26 67 37 90 10 24 19 46
19 51 0 4 16 47 35 95 19 48 35 92 35 99 0 7 -24 38 -52 68 -230 247 -307 333
-308 342 0 8 36 13 295 39 121 12 229 27 240 34 11 7 30 41 43 76 13 35 27 73
31 84 32 79 51 126 62 147 5 10 9 26 9 36 0 10 5 23 12 30 7 7 8 12 3 13 -25
3 -88 -4 -175 -18 -52 -8 -111 -17 -130 -19 -19 -2 -64 -9 -100 -14 -36 -6
-144 -22 -240 -35 l-175 -25 -34 38 c-18 20 -123 145 -233 277 -111 132 -218
260 -239 285 l-38 45 -11 -30z"/>
<path d="M9410 3655 l-355 -355 112 -112 c61 -62 291 -294 510 -516 219 -221
403 -402 408 -402 6 0 172 160 370 355 l359 354 -109 111 c-61 61 -118 116
-128 121 -15 9 -52 -24 -238 -208 -121 -120 -226 -219 -233 -221 -10 -2 -122
107 -142 140 -4 5 87 103 201 218 l207 208 -105 107 c-66 68 -110 106 -121
104 -9 -2 -103 -91 -210 -196 -106 -106 -201 -193 -209 -193 -15 0 -110 87
-146 133 -12 16 8 38 215 242 l229 225 -120 120 c-66 66 -124 120 -130 120 -6
0 -170 -160 -365 -355z"/>
<path d="M8575 3006 c-579 -277 -775 -375 -775 -387 0 -11 18 -48 185 -394 46
-93 111 -228 145 -300 34 -71 98 -204 142 -295 44 -91 94 -194 110 -230 43
-93 41 -92 96 -65 26 12 97 46 157 75 373 177 705 340 705 345 0 12 -139 305
-145 305 -10 0 -339 -155 -509 -240 -32 -17 -63 -30 -68 -30 -11 0 -97 183
-91 193 4 7 199 103 431 212 55 27 82 45 82 56 0 25 -120 269 -132 269 -11 0
-60 -22 -326 -151 -101 -49 -189 -89 -195 -89 -13 0 -97 166 -97 190 0 9 30
29 68 47 516 245 492 233 492 254 0 9 -12 41 -28 70 -15 30 -36 74 -47 99 -11
25 -31 64 -45 86 l-25 42 -130 -62z"/>
<path d="M6309 2547 c-1 -18 -3 -43 -5 -57 -1 -14 -6 -119 -9 -235 -3 -115
-10 -316 -15 -445 -5 -129 -11 -338 -12 -465 l-3 -230 185 0 185 0 5 215 c3
118 9 221 13 228 9 13 46 16 63 4 6 -4 44 -56 85 -117 41 -60 76 -112 79 -115
3 -3 39 -56 80 -117 45 -67 83 -115 95 -117 11 -3 114 -8 228 -11 l209 -7 -12
23 c-7 12 -70 99 -139 193 -201 271 -211 285 -211 294 0 5 24 19 53 32 67 30
145 109 181 181 56 117 70 322 30 449 -23 73 -85 163 -137 201 -136 99 -226
116 -659 123 l-288 5 -1 -32z m652 -341 c63 -26 108 -112 95 -180 -9 -45 -41
-93 -78 -116 -29 -17 -51 -20 -177 -20 l-144 0 7 156 c3 86 9 160 12 165 9 15
247 11 285 -5z"/>
</g>
</svg>
