<?xml version="1.0" standalone="no"?>
<!DOCTYPE svg PUBLIC "-//W3C//DTD SVG 20010904//EN"
 "http://www.w3.org/TR/2001/REC-SVG-20010904/DTD/svg10.dtd">
<svg version="1.0" xmlns="http://www.w3.org/2000/svg"
 width="824.000000pt" height="1280.000000pt" viewBox="0 0 824.000000 1280.000000"
 preserveAspectRatio="xMidYMid meet">
<metadata>
Created by potrace 1.15, written by Peter Selinger 2001-2017
</metadata>
<g transform="translate(0.000000,1280.000000) scale(0.100000,-0.100000)"
fill="#fff" stroke="none">
<path d="M5161 12789 c-257 -50 -468 -247 -531 -495 -41 -159 -19 -342 57
-487 49 -93 174 -221 263 -270 238 -130 524 -110 740 51 302 227 353 674 111
967 -150 182 -414 278 -640 234z"/>
<path d="M2728 12770 c-133 -24 -226 -65 -328 -146 -100 -80 -174 -187 -217
-319 -23 -68 -27 -98 -27 -200 0 -139 14 -197 76 -317 168 -324 565 -450 897
-286 67 33 104 61 167 123 130 128 191 264 201 445 20 370 -262 684 -634 704
-48 3 -109 1 -135 -4z"/>
<path d="M3020 11350 c-1059 -6 -1076 -6 -1168 -28 -214 -50 -388 -124 -557
-236 -358 -239 -602 -615 -670 -1031 -13 -78 -15 -490 -15 -3028 0 -2053 3
-2960 11 -3010 61 -406 273 -768 603 -1031 136 -108 337 -208 500 -248 57 -13
83 -24 79 -32 -4 -6 -411 -617 -905 -1358 l-898 -1348 523 0 523 0 649 950
648 950 1777 0 1777 0 648 -950 649 -950 523 0 523 0 -898 1348 c-494 741
-901 1352 -905 1358 -4 8 22 19 79 32 399 98 781 428 972 842 65 140 108 283
131 437 8 50 11 957 11 3010 0 3198 3 3006 -55 3207 -141 482 -522 875 -1007
1037 -216 73 -211 72 -858 76 -1378 7 -1669 8 -2690 3z m1954 -340 c64 -25
125 -85 150 -151 15 -39 17 -80 14 -324 -3 -266 -4 -282 -25 -321 -12 -22 -39
-56 -59 -74 -79 -69 -21 -65 -934 -65 -913 0 -855 -4 -934 65 -20 18 -47 52
-59 74 -21 39 -22 55 -25 323 -3 268 -2 284 18 331 27 63 83 117 146 142 47
18 84 19 851 20 783 0 804 0 857 -20z m1281 -1273 c264 -82 434 -259 507 -528
23 -84 23 -87 23 -739 0 -606 -1 -660 -18 -720 -77 -269 -261 -453 -534 -532
l-78 -23 -2035 0 -2035 0 -78 23 c-273 79 -457 263 -534 532 -17 60 -18 114
-18 720 0 653 0 655 23 739 82 302 299 498 606 550 28 5 958 8 2066 7 l2015
-1 90 -28z m-4013 -4827 c126 -18 237 -66 333 -143 229 -185 315 -471 226
-757 -61 -197 -229 -362 -444 -438 -62 -22 -90 -25 -202 -26 -110 -1 -142 3
-205 22 -115 36 -195 86 -286 176 -132 132 -191 266 -201 451 -7 131 13 222
73 345 129 259 418 412 706 370z m3997 -11 c25 -6 89 -32 141 -56 162 -78 297
-233 354 -408 86 -267 -12 -581 -236 -750 -349 -264 -842 -152 -1038 237 -55
110 -74 204 -68 341 8 187 67 318 202 452 109 108 233 172 376 195 64 10 202
4 269 -11z"/>
</g>
</svg>
