<?xml version="1.0" standalone="no"?>
<!DOCTYPE svg PUBLIC "-//W3C//DTD SVG 20010904//EN"
 "http://www.w3.org/TR/2001/REC-SVG-20010904/DTD/svg10.dtd">
<svg version="1.0" xmlns="http://www.w3.org/2000/svg"
 width="1280.000000pt" height="853.000000pt" viewBox="0 0 1280.000000 853.000000"
 preserveAspectRatio="xMidYMid meet">
<metadata>
Created by potrace 1.15, written by Peter Selinger 2001-2017
</metadata>
<g transform="translate(0.000000,853.000000) scale(0.100000,-0.100000)"
fill="#fff" stroke="none">
<path d="M7570 7304 c0 -15 -53 -115 -131 -245 l-132 -219 -93 0 c-94 0 -94 0
-94 -25 0 -16 6 -25 16 -25 9 0 24 -10 35 -22 l19 -23 19 23 c11 12 24 22 29
22 30 0 6 -54 -108 -242 l-125 -208 -113 0 -113 0 3 -35 c3 -44 21 -63 43 -45
8 7 15 19 15 26 0 11 16 14 65 14 36 0 65 -4 65 -10 0 -17 -540 -905 -553
-908 -6 -1 -51 -81 -100 -176 l-87 -174 0 -301 0 -301 -110 0 -110 0 0 226 0
226 -41 79 -41 79 -63 0 -63 0 -4 198 c-3 181 -5 201 -27 250 -26 58 -80 112
-114 113 -154 3 -297 3 -297 0 0 -3 12 -22 26 -43 l27 -38 99 0 c116 0 147
-12 174 -67 18 -38 32 -176 33 -340 l1 -73 -60 0 -60 0 0 108 c0 126 -19 179
-72 212 -28 17 -50 20 -150 20 -65 0 -118 -3 -118 -6 0 -3 9 -19 21 -35 20
-28 23 -29 105 -29 76 0 87 -2 109 -24 31 -31 45 -85 45 -173 l0 -73 -108 0
-108 0 -37 -75 -37 -75 0 -225 c0 -212 -1 -226 -20 -245 -17 -17 -20 -33 -20
-115 l0 -95 -40 0 -40 0 0 -680 0 -680 -134 0 c-98 0 -136 3 -139 13 -4 9 -6
9 -6 0 -1 -17 -531 -18 -531 -2 0 8 -4 8 -13 1 -20 -17 -534 -16 -540 1 -4 9
-6 9 -6 0 -1 -9 -139 -12 -588 -12 -322 -1 -588 -3 -590 -5 -2 -2 135 -309
306 -682 l309 -679 131 -142 132 -143 2689 0 2690 0 213 142 213 142 318 688
319 689 31 -8 c64 -16 133 -8 171 21 102 78 129 286 57 427 l-30 57 44 93 c25
50 42 94 40 96 -4 5 -770 4 -823 0 -25 -3 -33 1 -33 14 0 13 81 494 104 622 5
26 4 27 -39 27 l-45 0 0 94 c0 113 -8 126 -79 126 -26 0 -50 2 -53 5 -2 2 12
138 33 302 l37 297 -122 171 -122 170 -173 5 -174 5 -263 454 c-145 249 -264
455 -264 457 0 2 29 4 65 4 53 0 67 -3 72 -17 13 -37 53 -38 53 -2 0 12 7 19
19 19 14 0 19 6 18 20 -1 19 -8 20 -128 20 l-127 0 -116 200 c-92 159 -115
206 -110 225 8 31 20 32 45 3 l19 -23 19 23 c11 12 26 22 35 22 10 0 16 9 16
25 0 25 0 25 -99 25 l-99 0 -126 218 c-78 134 -126 227 -126 245 0 23 -4 27
-30 27 -26 0 -30 -4 -30 -26z m-3 -461 c-3 -2 -56 -2 -120 -1 l-115 3 116 194
117 195 3 -194 c1 -106 1 -195 -1 -197z m183 187 c56 -96 104 -178 107 -182 2
-5 -48 -8 -111 -8 l-116 0 0 192 c0 120 4 188 9 183 6 -6 55 -89 111 -185z
m-409 -262 l19 -23 19 23 c22 25 41 29 41 8 0 -8 4 -17 9 -20 14 -9 41 4 41
20 0 10 14 14 50 14 l50 0 0 -220 c0 -169 -3 -222 -13 -225 -7 -3 -128 -4
-270 -3 l-257 3 120 200 c66 110 127 205 135 211 8 6 15 16 15 23 0 18 20 13
41 -11z m400 0 l19 -23 19 23 c22 25 41 29 41 8 0 -8 4 -17 9 -20 14 -9 41 5
41 21 0 8 5 13 11 11 12 -4 248 -400 256 -431 5 -16 -10 -17 -248 -15 l-254 3
-3 223 -2 222 46 0 c35 0 50 -5 65 -22z m-516 -490 c6 -13 17 -23 25 -23 8 0
19 10 25 23 9 20 17 22 85 22 68 0 76 -2 85 -22 13 -30 37 -29 50 0 8 18 17
22 40 20 l30 -3 3 -457 2 -458 -560 0 -561 0 24 40 c13 23 136 227 273 454
240 398 249 412 265 392 14 -17 19 -18 33 -7 9 7 16 20 16 27 0 11 18 14 78
14 71 0 78 -2 87 -22z m452 5 c14 -39 40 -42 53 -8 9 24 14 25 85 25 63 0 77
-3 82 -17 14 -39 40 -42 53 -8 9 24 14 25 85 25 63 0 77 -3 82 -17 13 -35 53
-38 53 -5 0 10 3 12 9 7 6 -6 96 -158 202 -340 105 -181 222 -383 260 -447
l68 -118 -539 0 -540 0 0 453 c0 250 3 457 7 460 12 13 34 7 40 -10z m-1447
-1978 l0 -95 -110 0 -110 0 0 95 0 95 110 0 110 0 0 -95z m3115 61 c4 -18 5
-60 3 -92 l-3 -59 -64 -3 -64 -3 7 73 c12 119 11 118 67 118 47 0 48 -1 54
-34z m-4098 -113 c-2 -27 -3 -5 -3 47 0 52 1 74 3 48 2 -27 2 -69 0 -95z
m4850 -1106 c6 -64 -10 -127 -43 -167 -30 -35 -43 -37 -73 -12 l-22 17 58 123
c62 132 70 136 80 39z"/>
</g>
</svg>
